
<svg width="1015" height="679" fill="none" xmlns="http://www.w3.org/2000/svg">
  <mask id="b" style="mask-type:alpha" maskUnits="userSpaceOnUse" x="0" y="0" width="1109" height="679">
    <rect width="1108.46" height="678.381" fill="url(#a)"/>
  </mask>
  <g mask="url(#b)">
    <path opacity=".6" d="M284.212 934.142c-4.127-2.517 3.39-23.899 21.74-62.039 18.349-38.139 46.909-91.674 82.794-155.245 35.885-63.57 77.837-134.911 121.642-206.84 43.824-71.963 87.95-141.962 127.928-203.035 40.012-61.054 74.481-110.993 99.937-144.782 25.474-33.824 41.04-50.288 45.167-47.772M223.942 890.748c-17.143-14.505-19.677-45.691-7.371-90.42 12.341-44.71 39.124-101.433 77.637-164.397 38.513-62.965 87.449-129.979 141.839-194.277 54.409-64.334 112.348-123.698 168.003-172.158 55.69-48.44 107.127-84.286 149.176-103.875 42.049-19.589 73.224-22.265 90.386-7.794M165.144 831.521c-24.712-29.668-31.925-72.975-20.981-125.602 10.943-52.628 39.735-112.726 83.424-174.254 43.689-61.528 100.757-122.318 165.474-176.257 64.716-53.938 134.801-99.101 203.168-130.98 68.402-31.86 132.683-49.344 186.456-50.655 53.754-1.276 95.066 13.624 119.745 43.273M108.278 746.185c-24.0861-46.163-28.0938-101.793-11.5983-161.264C113.175 525.45 149.591 464.24 202.217 407.406c52.66-56.816 119.685-107.226 194.37-146.197 74.686-38.97 154.42-65.031 231.132-75.702 76.747-10.652 147.78-5.433 205.97 15.068 58.19 20.5 101.508 55.649 125.594 101.813M63.2587 618.573c-12.1858-60.8-2.4152-124.904 28.3291-185.849 30.7442-60.946 81.3682-116.602 146.8112-161.333 65.443-44.732 143.372-77.005 225.964-93.574 82.593-16.568 166.939-16.802 244.568-.733 77.629 16.069 145.787 47.898 197.635 92.276 51.848 44.377 85.571 99.799 97.754 160.599M61.6666 438.31c12.131-66.655 45.8694-128.139 97.8364-178.288 51.933-50.168 120.261-87.234 198.127-107.504 77.847-20.237 162.46-22.973 245.333-7.855 82.892 15.084 161.116 47.473 226.797 93.872 65.682 46.4 116.591 105.168 147.497 170.434 30.903 65.267 40.823 134.687 28.693 201.342M145.542 242.236c61.137-84.133 160.653-135.141 276.704-141.754 116.051-6.6128 239.085 31.706 342.051 106.49 102.965 74.783 177.457 179.974 207.044 292.344 29.569 112.403 11.87 222.814-49.233 306.966m-628.13-697.694c85.378-49.2476 192.539-52.7121 297.893-9.5695C697.226 142.161 792.142 228.286 855.726 338.559c63.604 110.238 90.681 235.541 75.252 348.335-15.429 112.794-72.049 203.837-157.427 253.084M439.48 53.7409c84.754-16.9847 175.964 16.2825 253.59 92.5361 77.625 76.253 135.261 189.151 160.285 313.944 25.025 124.792 15.316 251.227-26.92 351.471-42.236 100.243-113.587 166.128-198.342 183.113M555.09 44.8675c68.332 3.0457 131.635 56.4785 175.971 148.5175 44.337 92.038 66.039 215.21 60.43 342.35-5.662 127.155-38.203 247.874-90.533 335.64-52.33 87.766-120.096 135.385-188.427 132.335M645.119 57.4993c44.469 10.5906 75.366 69.9687 85.93 164.9917 10.564 95.023-.084 217.973-29.63 341.792-29.527 123.784-75.529 238.331-127.841 318.381-52.313 80.05-106.681 119.076-151.131 108.449M718.855 81.4982c18.369 7.6855 16.453 61.6878-5.269 150.1458-21.723 88.458-61.481 204.136-110.56 321.555-49.078 117.419-103.426 227.017-151.15 304.629-47.672 77.597-84.774 116.911-103.144 109.226m20.744 8.155c-46.843-17.074-92.329-42.333-131.585-73.07m306.583 101.931c-73.914 1.67-160.462-22.361-240.14-66.607-79.679-44.246-145.776-105.024-183.485-168.634m537.992 218.8c-93.994 25.371-225.273.039-345.323-66.625-120.05-66.665-210.952-164.708-239.1019-257.909M753.898 950.718c-49.55 25.575-116.793 33.914-192.804 23.909-76.011-10.005-157.296-37.851-232.992-79.885-75.697-42.035-142.322-96.28-190.977-155.547-48.674-59.234-77.1419-120.721-81.6264-176.301M834.454 898.345c-48.422 38.911-122.856 56.237-211.228 49.16-88.371-7.077-185.477-38.138-275.523-88.142-90.047-50.003-167.746-116.012-220.469-187.285-52.723-71.273-77.3637-143.616-69.9306-205.289M901.137 833.101c-43.569 51.848-121.651 78.736-219.259 75.513-97.627-3.189-207.987-36.265-309.912-92.864-101.924-56.599-188.34-132.794-242.656-213.979-54.3147-81.186-72.7669-161.68-51.8062-226.037M953.355 757.266c-23.467 42.259-65.892 72.958-123.015 89.118-57.157 16.14-126.964 17.126-202.472 2.819-75.508-14.307-154.017-43.351-227.688-84.261-73.671-40.91-139.827-92.199-191.887-148.731-52.06-56.533-88.159-116.329-104.639-173.36-16.5141-57.05-12.8284-109.306 10.619-151.532m839.082 465.947C891.57 868.527 788.086 950.704 665.71 985.694c-122.376 34.986-253.607 19.926-364.903-41.88C189.545 882.03 107.368 778.545 72.359 656.203c-34.99-122.376-19.9232-253.606 41.88-364.903C176.023 180.039 279.508 97.8617 401.85 62.8527c122.376-34.99 253.607-19.9232 364.903 41.8803 111.262 61.784 193.438 165.268 228.448 287.61 34.989 122.377 19.939 253.661-41.846 364.923Zm36.769-84.415c-16.017 49.227-54.359 86.729-110.622 108.216-56.245 21.453-128.088 26.025-207.295 13.122-79.227-12.868-162.606-42.685-240.534-85.959-77.963-43.293-147.315-98.289-200.12-158.738-52.804-60.449-86.955-123.835-98.443-182.9-11.522-59.084.078-111.437 33.381-151.108m843.749 366.308c-6.66 55.099-38.578 98.908-91.556 125.723-52.998 26.849-124.627 35.402-205.455 24.609-80.828-10.793-167.113-40.473-247.547-85.138-80.434-44.665-151.24-102.22-203.13-165.126-51.89-62.905-82.494-128.229-87.719-187.409-5.226-59.181 15.09-109.434 58.322-144.176m778.975 335.416c4.81 59.532-18.172 109.16-65.444 141.389-47.272 32.23-116.268 45.344-196.619 37.331-80.351-8.013-167.647-36.681-248.733-81.709-81.086-45.027-151.603-103.993-200.846-167.944-49.277-63.97-74.619-129.471-72.25-186.635 2.369-57.165 32.384-102.885 85.424-130.2945M993.212 385.49c18.788 62.264 7.948 117.198-30.619 155.113-38.572 37.914-102.383 56.333-180.151 52-77.734-4.314-164.389-31.144-244.583-75.676-80.193-44.532-148.742-103.887-193.53-167.61-44.754-63.704-62.852-127.608-51.058-180.392 11.794-52.784 52.718-91.0536 115.482-107.9883M946.711 279.718c37.034 62.561 43.552 122.73 18.084 167.381-25.469 44.651-80.836 70.185-153.992 70.973-73.175.823-158.231-23.143-236.571-66.646-78.34-43.502-143.646-103.034-181.63-165.583-37.984-62.55-45.597-123.012-21.158-168.235 24.439-45.223 78.958-71.4965 151.641-73.1314M829.684 146.461c52.431 41.063 90.641 89.455 107.634 136.261 16.958 46.786 11.535 88.825-15.333 118.282-26.867 29.456-73.3 44.321-130.743 41.887-57.443-2.434-121.964-22.048-181.594-55.161-59.665-33.132-110.388-77.513-142.819-124.988-32.432-47.474-44.36-94.746-33.558-133.124 10.801-38.3783 43.585-65.2236 92.299-75.5421 48.68-10.3376 109.991-3.465 172.563 19.3344M894.319 323.837c-16.089 28.974-51.613 45.629-98.697 46.298-47.118.649-101.943-14.749-152.441-42.791-50.533-28.061-92.586-66.46-116.908-106.78-24.356-40.34-28.982-79.245-12.874-108.254 16.09-28.974 51.614-45.6288 98.697-46.2976 47.118-.6498 101.943 14.7482 152.442 42.7906 50.498 28.042 92.585 66.46 116.907 106.78 24.322 40.321 28.963 79.28 12.874 108.254Zm-49.375-54.412c-10.961 19.739-35.128 31.067-67.173 31.508-32.045.441-69.401-10.017-103.765-29.1-34.364-19.082-63.008-45.229-79.555-72.698-16.565-27.434-19.724-53.937-8.763-73.677 10.961-19.739 35.128-31.0674 67.173-31.5084 32.045-.4409 69.402 10.0174 103.765 29.0994 34.364 19.083 63.008 45.23 79.555 72.699 16.565 27.434 19.725 53.937 8.763 73.677Zm-57.028-48.152c-11.552 20.803-50.298 21.341-86.55 1.21-36.252-20.131-56.278-53.305-44.726-74.109 11.552-20.803 50.299-21.341 86.551-1.21s56.277 53.305 44.725 74.109Z" stroke="#B2B2B2" stroke-width="1.396"/>
    <path d="M370.959-86.196c74.759 25.0727 132.17 83.7994 162.396 130.6532C268.571 45.0287 54.0444 259.625 53.5867 524.437c-53.8644-21.176-93.4076-51.316-118.5671-88.055-25.2795-36.914-36.0646-80.53-32.2279-128.497 7.6751-95.961 73.8757-209.3571 199.6503-321.1563C202.961-102.622 295.778-111.41 370.959-86.196Z" fill="url(#c)" fill-opacity=".08" stroke="url(#d)" stroke-width="1.1589"/>
  </g>
  <defs>
    <radialGradient id="c" cx="0" cy="0" r="1" gradientUnits="userSpaceOnUse" gradientTransform="matrix(-154.69398 -168.39943 168.694 -154.96458 298.542 248.772)">
      <stop stop-color="#fff"/>
      <stop offset="1" stop-color="#D9D9D9" stop-opacity="0"/>
    </radialGradient>
    <radialGradient id="d" cx="0" cy="0" r="1" gradientUnits="userSpaceOnUse" gradientTransform="matrix(-55.26342 -124.34555 256.03452 -113.7905 236.37 188.573)">
      <stop stop-color="#D9D9D9"/>
      <stop offset="1" stop-color="#D9D9D9" stop-opacity="0"/>
    </radialGradient>
    <linearGradient id="a" x1="446.14" y1="-76.7441" x2="689.505" y2="372.509" gradientUnits="userSpaceOnUse">
      <stop stop-color="#fff"/>
      <stop offset="1" stop-color="#fff" stop-opacity="0"/>
    </linearGradient>
  </defs>
</svg>
